Coordinates
version=1
nRows=24
nColumns=38
inDegrees=no

Units are S.I. units (second, meters, Newtons, ...)
If the header above contains a line with 'inDegrees', this indicates whether rotational values are in degrees (yes) or radians (no).

endheader
time	pelvis_tilt	pelvis_list	pelvis_rotation	pelvis_tx	pelvis_ty	pelvis_tz	hip_flexion_r	hip_adduction_r	hip_rotation_r	knee_angle_r	ankle_angle_r	subtalar_angle_r	mtp_angle_r	hip_flexion_l	hip_adduction_l	hip_rotation_l	knee_angle_l	ankle_angle_l	subtalar_angle_l	mtp_angle_l	lumbar_extension	lumbar_bending	lumbar_rotation	arm_flex_r	arm_add_r	arm_rot_r	elbow_flex_r	pro_sup_r	wrist_flex_r	wrist_dev_r	arm_flex_l	arm_add_l	arm_rot_l	elbow_flex_l	pro_sup_l	wrist_flex_l	wrist_dev_l
0.47	0.22166	1.43448	1.27901	0.691779	1.21487	1.00814	0.0357698	0.0962521	-0.00705671	0.495547	0.276372	0	0	0.64218	-0.156067	-0.338355	0.622694	0.212455	0	0	0.0802924	0.128313	0.218767	-0.197492	-0.530814	0.0878546	1.14143	1.14621	0	0	-0.175083	-0.176935	0.768294	0.342614	1.30411	0	0
0.48	0.208679	1.43547	1.28637	0.692279	1.22743	1.00628	0.0250503	0.0921453	-0.00507546	0.499872	0.273373	0	0	0.636938	-0.150525	-0.339588	0.601415	0.220337	0	0	0.0820132	0.122926	0.223096	-0.192052	-0.53416	0.0939066	1.14099	1.13855	0	0	-0.17853	-0.173369	0.755147	0.335202	1.31263	0	0
0.49	0.178419	1.43551	1.31032	0.692836	1.2401	1.00431	0.0224582	0.0851246	-0.00827397	0.520757	0.278957	0	0	0.632612	-0.142745	-0.336455	0.582411	0.226658	0	0	0.0848143	0.115041	0.227978	-0.188757	-0.531971	0.0925501	1.13932	1.14373	0	0	-0.182657	-0.169124	0.729153	0.327311	1.33193	0	0
0.5	0.151294	1.43751	1.33079	0.693482	1.25307	1.00259	0.0162481	0.078231	-0.00858429	0.538122	0.280617	0	0	0.62718	-0.137958	-0.339217	0.57261	0.225136	0	0	0.0894643	0.108476	0.238941	-0.193581	-0.527778	0.0833381	1.1368	1.15054	0	0	-0.178588	-0.176077	0.792163	0.324742	1.26043	0	0
0.51	0.127362	1.44084	1.3484	0.694117	1.26631	1.00109	0.00785232	0.0714474	-0.00702474	0.553487	0.278054	0	0	0.620615	-0.134492	-0.343621	0.569997	0.220842	0	0	0.0900957	0.100715	0.241722	-0.189594	-0.52597	0.087486	1.13187	1.14921	0	0	-0.18322	-0.174653	0.777829	0.319328	1.26392	0	0
0.52	0.104661	1.44454	1.36509	0.694736	1.27987	0.999705	-0.001083	0.0647571	-0.00470988	0.568682	0.273172	0	0	0.613598	-0.131952	-0.348811	0.574042	0.215316	0	0	0.0906053	0.0930372	0.243398	-0.186705	-0.523922	0.0926807	1.12655	1.14804	0	0	-0.188307	-0.173366	0.761416	0.31433	1.26858	0	0
0.53	0.0872936	1.4478	1.37689	0.695341	1.29383	0.998358	-0.010121	0.0588208	-0.00180317	0.582256	0.266568	0	0	0.606873	-0.131028	-0.353698	0.58492	0.210616	0	0	0.0935179	0.0869913	0.248036	-0.191202	-0.519228	0.0896207	1.12212	1.15206	0	0	-0.190231	-0.175729	0.775867	0.310187	1.2472	0	0
0.54	0.0725667	1.45169	1.38586	0.695985	1.30809	0.997093	-0.0185547	0.0528811	0.000681954	0.598577	0.256765	0	0	0.598488	-0.131094	-0.358846	0.600163	0.20396	0	0	0.0940679	0.0801126	0.244333	-0.186508	-0.519207	0.104612	1.11559	1.14519	0	0	-0.20006	-0.170592	0.723811	0.303226	1.28646	0	0
0.55	0.0463223	1.45302	1.40605	0.696628	1.32268	0.995816	-0.0225534	0.0459594	0.00510811	0.616838	0.242539	0	0	0.590795	-0.129494	-0.363	0.613658	0.191512	0	0	0.103698	0.0743934	0.25607	-0.203396	-0.510072	0.0901556	1.11051	1.15477	0	0	-0.195475	-0.180033	0.809886	0.298226	1.21321	0	0
0.56	-0.00611268	1.4559	1.4529	0.697152	1.33738	0.995045	-0.026386	0.0353393	0.0100398	0.636667	0.225228	0	0	0.580511	-0.124984	-0.374052	0.623435	0.17233	0	0	0.109803	0.0629624	0.25842	-0.207498	-0.503112	0.094509	1.09898	1.15556	0	0	-0.199395	-0.178587	0.806275	0.285347	1.23698	0	0
0.57	-0.0962231	1.45958	1.53877	0.697558	1.352	0.994968	-0.0285701	0.0208042	0.0155761	0.660247	0.206625	0	0	0.569993	-0.117589	-0.391001	0.630241	0.152207	0	0	0.114386	0.0456986	0.258599	-0.208025	-0.493463	0.101696	1.08203	1.1568	0	0	-0.202358	-0.17866	0.799059	0.273592	1.25254	0	0
0.58	-0.203397	1.46272	1.64428	0.697885	1.36647	0.995443	-0.0281525	0.00590451	0.0216689	0.688279	0.186284	0	0	0.561389	-0.110864	-0.402828	0.639982	0.131181	0	0	0.118845	0.0263416	0.259695	-0.210629	-0.481995	0.106692	1.06264	1.15598	0	0	-0.200243	-0.184387	0.831667	0.26496	1.22247	0	0
0.59	-0.308087	1.46207	1.74998	0.698009	1.3807	0.996046	-0.0211228	-0.00772926	0.0296941	0.721043	0.156976	0	0	0.556288	-0.102986	-0.401872	0.650093	0.108995	0	0	0.122502	0.00505438	0.249221	-0.203304	-0.470476	0.122972	1.03887	1.15949	0	0	-0.206199	-0.180282	0.761659	0.251452	1.28704	0	0
0.6	-0.384624	1.45404	1.82969	0.697806	1.39481	0.996348	-0.000982157	-0.0196864	0.0386669	0.762578	0.117112	0	0	0.559119	-0.0935094	-0.394474	0.66165	0.0948595	0	0	0.142652	-0.0100699	0.255859	-0.219898	-0.455631	0.115153	1.01821	1.16413	0	0	-0.193385	-0.200608	0.943066	0.251572	1.11182	0	0
0.61	-0.443833	1.44849	1.89494	0.697317	1.40868	0.996903	0.0184037	-0.0292756	0.046799	0.804359	0.0728386	0	0	0.560097	-0.0845962	-0.388033	0.675966	0.0857075	0	0	0.151207	-0.0261262	0.245545	-0.222185	-0.445423	0.124748	0.998767	1.16218	0	0	-0.194385	-0.202048	0.932841	0.242391	1.12287	0	0
0.62	-0.493662	1.44501	1.95221	0.696596	1.42222	0.997656	0.0377602	-0.0370246	0.054607	0.846692	0.0311772	0	0	0.558776	-0.0760348	-0.382619	0.690057	0.0780356	0	0	0.15519	-0.0396774	0.236519	-0.23008	-0.433181	0.122268	0.983987	1.16873	0	0	-0.190178	-0.206265	0.9514	0.236795	1.10659	0	0
0.63	-0.523525	1.43851	1.98993	0.695759	1.43543	0.998109	0.0647828	-0.0434553	0.0616362	0.892251	-0.0239257	0	0	0.559592	-0.0663957	-0.373537	0.699978	0.071599	0	0	0.160981	-0.0522568	0.219441	-0.230372	-0.428751	0.140864	0.968682	1.15563	0	0	-0.192657	-0.204949	0.90438	0.229579	1.15068	0	0
0.64	-0.548231	1.43333	2.02199	0.694931	1.44822	0.998651	0.092589	-0.0480221	0.0693912	0.937677	-0.0773197	0	0	0.556492	-0.0565239	-0.36438	0.705343	0.0687629	0	0	0.160292	-0.0646045	0.194159	-0.221792	-0.428967	0.173358	0.953777	1.1355	0	0	-0.199803	-0.19304	0.748206	0.2168	1.29801	0	0
0.65	-0.564731	1.42765	2.04449	0.69415	1.46072	0.999207	0.123553	-0.0511161	0.0780124	0.98365	-0.132178	0	0	0.551976	-0.0472605	-0.359566	0.708647	0.0696596	0	0	0.168379	-0.0714066	0.192257	-0.238503	-0.420698	0.167621	0.943658	1.13522	0	0	-0.185949	-0.210618	0.897155	0.225428	1.15176	0	0
0.66	-0.589002	1.42428	2.07302	0.693458	1.4728	0.999989	0.15447	-0.0539417	0.0860611	1.03068	-0.188988	0	0	0.543023	-0.0387267	-0.361414	0.711712	0.07395	0	0	0.168026	-0.0792119	0.18278	-0.244329	-0.415946	0.176122	0.932253	1.13033	0	0	-0.177503	-0.215811	0.920651	0.226518	1.12737	0	0
0.67	-0.617157	1.4227	2.10383	0.692861	1.48455	1.001	0.185388	-0.0565451	0.0932154	1.07634	-0.252439	0	0	0.530529	-0.0314716	-0.368856	0.714599	0.0810795	0	0	0.164491	-0.0859136	0.17384	-0.24789	-0.412906	0.188451	0.920442	1.12041	0	0	-0.167959	-0.220131	0.93857	0.227912	1.10806	0	0
0.68	-0.646711	1.42261	2.13539	0.692266	1.49613	1.00219	0.215699	-0.059047	0.0988458	1.11928	-0.315321	0	0	0.515013	-0.0248409	-0.378098	0.717237	0.0911467	0	0	0.158526	-0.0912561	0.164806	-0.250064	-0.411245	0.203602	0.90858	1.10881	0	0	-0.157778	-0.224024	0.949583	0.23044	1.09217	0	0
0.69	-0.67102	1.42319	2.16232	0.691621	1.50762	1.00349	0.245779	-0.0610815	0.10257	1.1595	-0.36527	0	0	0.49815	-0.0181118	-0.384927	0.719212	0.10374	0	0	0.152167	-0.0951492	0.15476	-0.251125	-0.409755	0.220877	0.895242	1.09999	0	0	-0.147742	-0.228121	0.953479	0.234524	1.08088	0	0
0.7	-0.706869	1.42683	2.19861	0.691186	1.51868	1.00511	0.273585	-0.0625104	0.107371	1.19934	-0.393852	0	0	0.476672	-0.0123482	-0.392056	0.719754	0.118459	0	0	0.130656	-0.101053	0.112828	-0.214318	-0.421129	0.295781	0.874728	1.07316	0	0	-0.165233	-0.200326	0.601093	0.225012	1.39348	0	0
